<?xml version="1.0" standalone="no"?>
<!DOCTYPE svg PUBLIC "-//W3C//DTD SVG 20010904//EN"
 "http://www.w3.org/TR/2001/REC-SVG-20010904/DTD/svg10.dtd">
<svg version="1.0" xmlns="http://www.w3.org/2000/svg"
 width="550.000000pt" height="550.000000pt" viewBox="0 0 550.000000 550.000000"
 preserveAspectRatio="xMidYMid meet">
<metadata>
Created by potrace 1.14, written by Peter Selinger 2001-2017
</metadata>
<g transform="translate(0.000000,550.000000) scale(0.100000,-0.100000)"
fill="#000000" stroke="none">
<path d="M2535 5489 c-27 -4 -67 -10 -89 -14 -80 -14 -196 -59 -336 -133 -80
-42 -147 -75 -150 -75 -3 0 -16 -7 -30 -17 -14 -9 -36 -21 -50 -25 -31 -10
-154 -86 -188 -117 -15 -13 -49 -51 -77 -83 -27 -32 -64 -75 -81 -94 -87 -100
-200 -300 -220 -391 -33 -146 -22 -469 21 -620 25 -88 38 -144 49 -205 3 -16
8 -41 10 -55 6 -31 14 -102 21 -177 3 -32 8 -78 11 -103 3 -25 7 -54 8 -65 9
-71 54 -102 102 -70 46 30 57 76 51 210 -4 66 -9 131 -11 144 -13 60 -21 177
-20 296 1 108 4 139 22 186 27 68 65 115 113 140 47 24 173 19 274 -11 132
-38 293 -79 342 -86 84 -12 226 -7 313 11 14 3 52 10 85 16 154 27 425 100
500 134 91 41 188 66 252 66 85 0 105 -5 170 -36 75 -37 163 -147 177 -222 2
-10 10 -38 17 -63 8 -29 13 -122 15 -255 1 -115 5 -221 8 -235 13 -57 16 -67
26 -105 6 -22 13 -51 16 -65 2 -14 7 -31 10 -39 2 -8 7 -37 10 -65 7 -61 13
-69 54 -68 84 2 134 91 130 227 -1 51 -3 68 -15 145 -23 151 -9 258 51 387 64
137 76 185 80 328 4 178 -18 276 -102 451 -76 159 -208 324 -331 416 -32 24
-60 45 -63 49 -20 22 -310 165 -310 152 0 -3 -6 -1 -12 4 -24 18 -228 84 -301
97 -104 19 -149 26 -197 31 -90 10 -301 13 -355 4z m360 -98 c145 -24 322 -74
465 -131 85 -33 220 -98 220 -105 0 -8 -132 5 -215 21 -11 2 -33 7 -50 9 -16
3 -97 20 -180 36 -181 38 -324 45 -409 23 -33 -9 -123 -42 -200 -74 -131 -54
-183 -72 -246 -84 -345 -65 -382 -81 -538 -227 -108 -101 -294 -259 -305 -259
-17 0 97 187 156 257 69 82 189 191 280 254 171 117 499 260 657 285 19 3 36
7 37 8 8 7 269 -4 328 -13z"/>
<path d="M1729 3185 c-2 -2 -26 -6 -54 -9 -109 -11 -162 -17 -206 -20 -26 -2
-51 -6 -57 -10 -13 -8 -15 -157 -3 -203 6 -21 26 -60 45 -87 29 -40 57 -107
72 -171 57 -247 90 -308 194 -354 66 -28 111 -35 245 -34 189 2 307 19 375 53
93 47 200 231 247 422 33 140 47 156 133 156 85 0 100 -16 130 -138 29 -117
65 -209 119 -299 92 -155 185 -190 526 -196 61 -1 114 1 120 4 5 3 16 6 25 7
93 13 182 79 216 161 8 18 25 79 39 135 40 166 58 212 111 283 12 17 25 46 29
65 7 32 9 190 2 196 -1 2 -32 6 -67 9 -101 9 -146 14 -197 23 -60 9 -551 9
-618 0 -61 -8 -83 -15 -207 -61 -167 -63 -306 -61 -478 8 -47 19 -101 37 -120
41 -19 3 -46 9 -60 11 -28 6 -556 14 -561 8z m616 -110 c65 -22 98 -47 125
-90 32 -51 32 -166 1 -249 -6 -14 -7 -26 -3 -26 4 0 1 -4 -7 -9 -8 -5 -22 -8
-31 -6 -30 6 -83 14 -135 20 -27 4 -58 8 -67 11 -9 3 -27 7 -40 9 -97 19 -149
33 -263 70 -145 48 -303 119 -311 140 -8 20 22 71 53 93 43 29 91 42 178 49
44 3 81 6 82 7 1 1 84 1 185 0 147 -1 193 -5 233 -19z m1311 6 c105 -20 150
-54 179 -137 16 -47 20 -44 -130 -103 -176 -69 -430 -128 -640 -147 -33 -3
-64 -6 -69 -7 -16 -3 -48 116 -48 183 -2 125 62 193 202 218 62 12 435 6 506
-7z m-2086 -38 l0 -33 -60 0 c-59 0 -60 0 -60 28 0 16 2 31 4 33 2 2 29 4 60
4 l56 0 0 -32z m2420 0 l0 -33 -60 0 c-60 0 -60 0 -60 29 0 34 5 36 71 36 49
0 49 0 49 -32z"/>
<path d="M1380 2800 c-12 -12 -19 -24 -16 -28 2 -4 7 -41 11 -82 7 -85 11
-125 20 -190 3 -25 8 -65 11 -90 3 -25 9 -79 14 -120 5 -41 12 -100 15 -130 3
-30 8 -66 10 -80 2 -14 6 -50 10 -80 3 -30 8 -66 10 -80 3 -14 7 -47 10 -75 3
-27 7 -66 10 -85 6 -41 11 -83 20 -164 4 -33 9 -67 10 -75 2 -9 6 -41 10 -71
4 -30 8 -66 10 -79 3 -13 7 -45 11 -70 3 -25 7 -57 10 -70 2 -13 6 -45 9 -70
14 -97 36 -198 57 -251 66 -167 375 -611 517 -742 84 -78 152 -110 333 -155
41 -10 441 -12 507 -2 268 39 369 97 533 309 176 229 375 556 392 646 11 55
24 145 31 209 3 28 7 64 10 80 2 17 7 62 10 100 4 39 8 86 10 105 2 19 7 67
10 105 3 39 8 86 10 105 2 19 6 70 10 113 3 42 8 96 10 120 2 23 7 78 10 122
3 44 8 103 10 130 3 28 7 86 11 130 3 44 7 94 9 110 9 100 18 252 19 325 l1
84 -33 10 c-57 16 -59 7 -66 -234 -6 -228 -8 -246 -32 -380 -65 -355 -233
-507 -487 -440 -40 11 -108 33 -151 50 -87 34 -262 88 -311 95 -16 3 -41 7
-55 10 -103 19 -277 22 -368 5 -34 -6 -72 -13 -85 -15 -13 -3 -43 -11 -66 -20
-23 -8 -45 -15 -49 -16 -14 -3 -28 -8 -162 -53 -74 -25 -167 -52 -206 -60
-185 -39 -329 26 -410 185 -29 59 -60 145 -69 198 -3 19 -8 37 -10 41 -2 3 -7
29 -10 56 -4 27 -8 60 -10 73 -10 59 -17 192 -19 333 -1 84 -5 159 -10 166
-11 19 -54 14 -76 -8z m1540 -1074 c100 -23 96 -22 170 -41 36 -9 88 -19 115
-21 28 -1 51 -3 52 -4 2 0 -9 -21 -24 -47 -34 -63 -76 -98 -143 -124 -48 -18
-67 -20 -155 -14 -141 10 -236 9 -342 -1 -77 -8 -101 -7 -144 7 -71 24 -127
65 -162 122 -31 51 -31 55 -1 61 11 2 30 7 44 10 101 22 262 56 294 61 22 3
41 7 43 8 9 9 190 -3 253 -17z"/>
</g>
</svg>
